<svg width="1043" height="773" viewBox="0 0 1043 773" fill="none" xmlns="http://www.w3.org/2000/svg">
<path d="M1042.29 386.033C892.659 406.977 921.096 563.428 880.922 563.428C850.249 563.428 854.15 439.707 818.172 439.707C782.21 439.707 771.355 692.748 725.337 692.748C679.319 692.748 664.04 422.142 640.174 422.142C616.308 422.142 600.604 644.346 566.927 644.559C533.234 644.787 524.55 420.412 487.853 420.412C451.157 420.412 453.736 772.066 406.184 772.066C358.648 772.066 349.98 421.8 313.642 421.8C277.321 421.8 263.364 564.407 239.123 564.407C185.547 564.407 251.137 398.603 0 386.033C148.53 365.612 131.411 205.799 165.027 205.799C202.556 205.799 194.966 331.135 227.206 331.135C268.163 331.135 279.884 0.000244141 327.436 0.000244141C374.972 0.000244141 372.409 351.655 409.106 351.655C445.802 351.655 454.487 127.279 488.163 127.492C521.856 127.72 537.56 349.908 561.426 349.908C585.292 349.908 600.571 79.3029 646.589 79.3029C692.607 79.3029 696.427 353.826 739.425 353.826C771.942 353.826 771.273 208.623 802.174 208.623C842.332 208.623 813.895 365.073 963.522 386.033H1042.29Z" fill="url(#paint0_linear_38_142)"/>
<defs>
<linearGradient id="paint0_linear_38_142" x1="828.441" y1="123.461" x2="119.441" y2="510.461" gradientUnits="userSpaceOnUse">
<stop stop-color="#FD9544"/>
<stop offset="0.494792" stop-color="#FA0BEB"/>
<stop offset="1" stop-color="#B101FE"/>
</linearGradient>
</defs>
</svg>
