<svg xmlns="http://www.w3.org/2000/svg" width="459" height="340" fill="none">
  <path fill="url(#a)" d="M459 170c-65.892 9.224-53.37 78.121-71.061 78.121-13.508 0-11.79-54.484-27.634-54.484-15.837 0-20.617 111.434-40.883 111.434-20.265 0-26.993-119.169-37.503-119.169-10.51 0-17.426 97.854-32.257 97.947-14.837.101-18.662-98.709-34.822-98.709-16.161 0-15.025 154.861-35.966 154.861-20.933 0-24.751-154.25-40.753-154.25-15.995 0-22.141 62.801-32.817 62.801-23.593 0 5.291-73.016-105.304-78.552 65.41-8.993 57.87-79.371 72.674-79.371 16.527 0 13.185 55.196 27.383 55.196C118.093 145.825 123.255 0 144.196 0c20.933 0 19.805 154.861 35.965 154.861 16.161 0 19.985-98.81 34.815-98.717 14.838.101 21.754 97.948 32.264 97.948 10.51 0 17.239-119.169 37.504-119.169 20.265 0 21.947 120.894 40.882 120.894 14.32 0 14.026-63.944 27.634-63.944 17.684 0 5.162 68.897 71.054 78.127H459"/>
  <defs>
    <linearGradient id="a" x1="364.827" x2="52.599" y1="54.369" y2="224.796" gradientUnits="userSpaceOnUse">
      <stop stop-color="#FD9544"/>
      <stop offset=".495" stop-color="#FA0BEB"/>
      <stop offset="1" stop-color="#B101FE"/>
    </linearGradient>
  </defs>
</svg>
